# xmcd
#
# Track frame offsets:
#	150
#	15588
#	29208
#	43385
#	56188
#	67880
#	81405
#	95274
#	108366
#	120388
#	133711
#	146488
#	160843
#	172434
#	186224
#	196199
#	207296
#	212609
#	219568
#	232521
#	244501
#	256943
#	273883
#	286046
#	296933
#	307591
#	321605
#	331333
#
# Disc length: 4546 seconds
# Revision: 1
# Processed by: cddbd v1.5.2PL0 Copyright (c) Steve Scherf et al.
# Submitted via: dBpowerAMP V12.0
#
DISCID=a211c01c
DTITLE=B. B. KING - THE COMPLETE RPM - KENT RECORDING BOX
DYEAR=2015
DGENRE=Blues
TTITLE0=The Road I Travel - take 1
TTITLE1=Blues At Sunrise
TTITLE2=Army Of The Lord - alt. version
TTITLE3=Broke And Hungry - take 2
TTITLE4=So Much Trouble
TTITLE5=Questionnaire Blues
TTITLE6=Bad Breaks
TTITLE7=Someday Baby (aka Some Day, Some Where)
TTITLE8=B.B Blues (with B.B. on KOMA, Oklahoma)
TTITLE9=Sunny Road
TTITLE10=Why I Sing The Blues - take 4
TTITLE11=Sweet Little Angel - alt. take
TTITLE12=My Silent Prayer
TTITLE13=I Want To Get Married - alt. take
TTITLE14=Sundown
TTITLE15=Mean Ole Frisco - take 2
TTITLE16=B.b King Radio Sopt on WOKJ, Jackson, MS
TTITLE17=Everyday I Have The Blues - take 5 (incomplete)
TTITLE18=Down Now - take 1
TTITLE19=We Can't Make It
TTITLE20=My Own Fault - take 1 (incomplete)
TTITLE21=The Worst Thing In My Life - alt. overdubbed version
TTITLE22=I'll Survive
TTITLE23=Young Dreamers
TTITLE24=I'm King
TTITLE25=Growing Old - take 2
TTITLE26=Time To Say Goodbye - take 4
TTITLE27=Swing Low Sweet Chariot
EXTD=
EXTT0=
EXTT1=
EXTT2=
EXTT3=
EXTT4=
EXTT5=
EXTT6=
EXTT7=
EXTT8=
EXTT9=
EXTT10=
EXTT11=
EXTT12=
EXTT13=
EXTT14=
EXTT15=
EXTT16=
EXTT17=
EXTT18=
EXTT19=
EXTT20=
EXTT21=
EXTT22=
EXTT23=
EXTT24=
EXTT25=
EXTT26=
EXTT27=
PLAYORDER=
